<?xml version="1.0" standalone="no"?>
<!DOCTYPE svg PUBLIC "-//W3C//DTD SVG 20010904//EN"
 "http://www.w3.org/TR/2001/REC-SVG-20010904/DTD/svg10.dtd">
<svg version="1.0" xmlns="http://www.w3.org/2000/svg"
 width="620.000000pt" height="620.000000pt" viewBox="0 0 620.000000 620.000000"
 preserveAspectRatio="xMidYMid meet">

<g transform="translate(0.000000,620.000000) scale(0.100000,-0.100000)"
fill="#000000" stroke="none">
<path d="M1847 4586 c-92 -33 -165 -110 -193 -204 -21 -68 -20 -512 1 -552 19
-37 43 -50 92 -50 31 0 46 7 69 31 l29 30 5 247 c3 136 9 255 13 264 20 41 63
48 305 48 l230 0 31 26 c38 32 49 80 27 122 -9 17 -25 36 -35 42 -31 16 -527
12 -574 -4z"/>
<path d="M3747 4575 c-31 -32 -39 -71 -22 -111 26 -62 35 -64 292 -64 248 0
269 -4 300 -49 16 -23 19 -59 23 -274 l5 -249 28 -24 c41 -35 99 -33 138 5
l29 29 0 264 c0 255 -1 264 -24 314 -34 72 -78 119 -148 154 l-61 30 -267 0
-267 0 -26 -25z"/>
<path d="M2584 3645 c-30 -15 -61 -42 -79 -68 -26 -37 -30 -50 -30 -112 0 -59
4 -76 27 -108 41 -61 93 -91 163 -95 75 -4 136 25 180 87 27 38 30 51 30 115
0 62 -4 78 -28 114 -34 52 -108 92 -170 92 -26 0 -62 -10 -93 -25z"/>
<path d="M3414 3645 c-30 -15 -61 -42 -79 -68 -26 -37 -30 -50 -30 -112 0 -59
4 -76 27 -108 41 -61 93 -91 163 -95 75 -4 136 25 180 87 27 38 30 51 30 115
0 64 -3 78 -29 115 -60 86 -168 113 -262 66z"/>
<path d="M2309 3027 c-47 -31 -59 -82 -33 -128 56 -97 344 -214 611 -250 145
-19 405 -7 548 25 198 45 396 133 458 204 10 11 21 38 24 60 4 33 1 44 -23 71
-44 49 -87 51 -150 8 -167 -115 -379 -170 -654 -171 -270 0 -480 54 -649 168
-62 42 -86 44 -132 13z"/>
<path d="M1700 2520 c-27 -11 -60 -57 -60 -84 0 -14 15 -16 104 -16 l105 0
-10 32 c-5 18 -17 40 -27 50 -22 22 -78 31 -112 18z"/>
<path d="M4388 2514 c-31 -16 -48 -43 -48 -73 0 -20 6 -21 100 -21 108 0 112
2 88 55 -22 50 -88 68 -140 39z"/>
<path d="M2022 2151 c-47 -12 -72 -39 -72 -75 0 -54 26 -72 114 -82 62 -7 74
-15 51 -34 -11 -9 -37 -11 -90 -7 l-75 7 0 -29 c0 -28 1 -29 68 -35 106 -11
172 19 172 76 0 52 -29 68 -150 80 -14 2 -25 9 -25 18 0 12 16 15 80 16 78 1
80 2 83 27 2 17 -2 27 -15 31 -38 11 -109 14 -141 7z"/>
<path d="M2371 2150 c-18 -4 -42 -17 -53 -27 -41 -42 -42 -150 -2 -194 25 -27
87 -41 150 -33 51 6 54 8 54 34 l0 28 -65 -6 c-82 -6 -105 10 -105 74 0 65 19
78 102 71 67 -6 68 -5 68 18 0 13 -3 26 -7 28 -17 10 -110 15 -142 7z"/>
<path d="M3398 2153 l-48 -4 0 -125 0 -124 29 0 c26 0 30 4 33 31 l3 31 66 1
c49 2 72 7 87 21 41 37 40 124 -3 152 -25 16 -95 24 -167 17z m127 -93 l0 -35
-55 0 c-50 0 -55 2 -58 23 -7 45 4 53 60 50 l53 -3 0 -35z"/>
<path d="M2671 2045 c-69 -145 -69 -145 -33 -145 21 0 32 7 40 25 11 23 17 25
75 25 58 0 65 -2 75 -25 8 -17 20 -25 37 -25 14 0 25 5 25 10 0 6 -24 62 -52
125 -52 112 -54 115 -85 115 -31 0 -34 -4 -82 -105z m87 -33 c-17 -2 -32 -2
-34 1 -2 2 3 21 12 43 l17 39 17 -40 17 -40 -29 -3z"/>
<path d="M2990 2025 l0 -125 30 0 29 0 3 77 3 78 63 -78 c53 -64 68 -77 93
-77 l29 0 0 125 0 125 -30 0 -30 0 0 -75 c0 -41 -3 -75 -7 -75 -5 1 -34 34
-66 75 -49 63 -63 75 -88 75 l-29 0 0 -125z"/>
<path d="M3715 2034 c-30 -64 -55 -120 -55 -125 0 -5 13 -9 28 -9 21 0 32 7
40 25 11 23 17 25 77 25 61 0 65 -2 71 -25 5 -19 13 -25 35 -25 16 0 29 4 29
10 0 5 -24 61 -52 125 -52 112 -54 114 -86 115 -32 0 -34 -2 -87 -116z m108
11 l17 -35 -35 0 c-38 0 -41 6 -23 45 15 33 21 32 41 -10z"/>
<path d="M3980 2140 c0 -6 20 -41 45 -78 38 -56 45 -75 45 -114 l0 -48 35 0
35 0 0 51 c0 42 6 59 40 109 57 84 58 90 21 90 -27 0 -36 -7 -62 -50 -17 -27
-33 -50 -35 -50 -2 0 -18 23 -35 50 -26 42 -36 50 -60 50 -16 0 -29 -5 -29
-10z"/>
<path d="M2597 1674 c-4 -4 -4 -11 -1 -15 3 -5 225 -9 495 -9 428 0 489 2 489
15 0 13 -61 15 -488 15 -269 0 -492 -3 -495 -6z"/>
</g>
</svg>
